<?xml version="1.0" encoding="UTF-8" standalone="no"?>
<!-- Created with Inkscape (http://www.inkscape.org/) -->

<svg
   width="275.83856mm"
   height="273.42981mm"
   viewBox="0 0 275.83856 273.42981"
   version="1.1"
   id="svg1"
   inkscape:version="1.3 (0e150ed6c4, 2023-07-21)"
   sodipodi:docname="logo_small.svg"
   xmlns:inkscape="http://www.inkscape.org/namespaces/inkscape"
   xmlns:sodipodi="http://sodipodi.sourceforge.net/DTD/sodipodi-0.dtd"
   xmlns="http://www.w3.org/2000/svg"
   xmlns:svg="http://www.w3.org/2000/svg">
  <sodipodi:namedview
     id="namedview1"
     pagecolor="#ffffff"
     bordercolor="#666666"
     borderopacity="1.0"
     inkscape:showpageshadow="2"
     inkscape:pageopacity="0.0"
     inkscape:pagecheckerboard="0"
     inkscape:deskcolor="#d1d1d1"
     inkscape:document-units="mm"
     inkscape:zoom="0.26803444"
     inkscape:cx="621.18883"
     inkscape:cy="177.21603"
     inkscape:window-width="1920"
     inkscape:window-height="1009"
     inkscape:window-x="1912"
     inkscape:window-y="-8"
     inkscape:window-maximized="1"
     inkscape:current-layer="layer1" />
  <defs
     id="defs1">
    <filter
       style="color-interpolation-filters:sRGB"
       inkscape:label="Greyscale"
       id="filter1"
       x="-0.004809037"
       y="-0.0036936684"
       width="1.0114531"
       height="1.0088057">
      <feColorMatrix
         values="0.21 0.72 0.072 0 0 0.21 0.72 0.072 0 0 0.21 0.72 0.072 0 0 0 0 0 1 0 "
         id="feColorMatrix1"
         result="fbSourceGraphic" />
      <feColorMatrix
         result="fbSourceGraphicAlpha"
         in="fbSourceGraphic"
         values="0 0 0 -1 0 0 0 0 -1 0 0 0 0 -1 0 0 0 0 1 0"
         id="feColorMatrix2" />
      <feColorMatrix
         id="feColorMatrix3"
         values="0.21 0.72 0.072 0 0 0.21 0.72 0.072 0 0 0.21 0.72 0.072 0 0 0 0 0 1 0 "
         in="fbSourceGraphic" />
    </filter>
    <filter
       style="color-interpolation-filters:sRGB"
       inkscape:label="Greyscale"
       id="filter6"
       x="-0.0067058834"
       y="-0.005150578"
       width="1.015991"
       height="1.0122947">
      <feColorMatrix
         values="0.21 0.72 0.072 0 0 0.21 0.72 0.072 0 0 0.21 0.72 0.072 0 0 0 0 0 1 0 "
         id="feColorMatrix4"
         result="fbSourceGraphic" />
      <feColorMatrix
         result="fbSourceGraphicAlpha"
         in="fbSourceGraphic"
         values="0 0 0 -1 0 0 0 0 -1 0 0 0 0 -1 0 0 0 0 1 0"
         id="feColorMatrix5" />
      <feColorMatrix
         id="feColorMatrix6"
         values="0.21 0.72 0.072 0 0 0.21 0.72 0.072 0 0 0.21 0.72 0.072 0 0 0 0 0 1 0 "
         in="fbSourceGraphic" />
    </filter>
    <clipPath
       clipPathUnits="userSpaceOnUse"
       id="clipPath389">
      <path
         d="M 0,600 H 600 V 0 H 0 Z"
         id="path389-2" />
    </clipPath>
    <filter
       style="color-interpolation-filters:sRGB"
       inkscape:label="Greyscale"
       id="filter9"
       x="-0.0067058834"
       y="-0.005150578"
       width="1.015991"
       height="1.0122947">
      <feColorMatrix
         values="0.21 0.72 0.072 0 0 0.21 0.72 0.072 0 0 0.21 0.72 0.072 0 0 0 0 0 1 0 "
         id="feColorMatrix7"
         result="fbSourceGraphic" />
      <feColorMatrix
         result="fbSourceGraphicAlpha"
         in="fbSourceGraphic"
         values="0 0 0 -1 0 0 0 0 -1 0 0 0 0 -1 0 0 0 0 1 0"
         id="feColorMatrix8" />
      <feColorMatrix
         id="feColorMatrix9"
         values="0.21 0.72 0.072 0 0 0.21 0.72 0.072 0 0 0.21 0.72 0.072 0 0 0 0 0 1 0 "
         in="fbSourceGraphic" />
    </filter>
    <filter
       style="color-interpolation-filters:sRGB"
       inkscape:label="Greyscale"
       id="filter12"
       x="-0.0067058834"
       y="-0.005150578"
       width="1.015991"
       height="1.0122947">
      <feColorMatrix
         values="0.21 0.72 0.072 0 0 0.21 0.72 0.072 0 0 0.21 0.72 0.072 0 0 0 0 0 1 0 "
         id="feColorMatrix10"
         result="fbSourceGraphic" />
      <feColorMatrix
         result="fbSourceGraphicAlpha"
         in="fbSourceGraphic"
         values="0 0 0 -1 0 0 0 0 -1 0 0 0 0 -1 0 0 0 0 1 0"
         id="feColorMatrix11" />
      <feColorMatrix
         id="feColorMatrix12"
         values="0.21 0.72 0.072 0 0 0.21 0.72 0.072 0 0 0.21 0.72 0.072 0 0 0 0 0 1 0 "
         in="fbSourceGraphic" />
    </filter>
    <filter
       style="color-interpolation-filters:sRGB"
       inkscape:label="Greyscale"
       id="filter15"
       x="-0.0067058834"
       y="-0.005150578"
       width="1.015991"
       height="1.0122947">
      <feColorMatrix
         values="0.21 0.72 0.072 0 0 0.21 0.72 0.072 0 0 0.21 0.72 0.072 0 0 0 0 0 1 0 "
         id="feColorMatrix13"
         result="fbSourceGraphic" />
      <feColorMatrix
         result="fbSourceGraphicAlpha"
         in="fbSourceGraphic"
         values="0 0 0 -1 0 0 0 0 -1 0 0 0 0 -1 0 0 0 0 1 0"
         id="feColorMatrix14" />
      <feColorMatrix
         id="feColorMatrix15"
         values="0.21 0.72 0.072 0 0 0.21 0.72 0.072 0 0 0.21 0.72 0.072 0 0 0 0 0 1 0 "
         in="fbSourceGraphic" />
    </filter>
    <filter
       style="color-interpolation-filters:sRGB"
       inkscape:label="Greyscale"
       id="filter18"
       x="-0.0067058834"
       y="-0.005150578"
       width="1.015991"
       height="1.0122947">
      <feColorMatrix
         values="0.21 0.72 0.072 0 0 0.21 0.72 0.072 0 0 0.21 0.72 0.072 0 0 0 0 0 1 0 "
         id="feColorMatrix16"
         result="fbSourceGraphic" />
      <feColorMatrix
         result="fbSourceGraphicAlpha"
         in="fbSourceGraphic"
         values="0 0 0 -1 0 0 0 0 -1 0 0 0 0 -1 0 0 0 0 1 0"
         id="feColorMatrix17" />
      <feColorMatrix
         id="feColorMatrix18"
         values="0.21 0.72 0.072 0 0 0.21 0.72 0.072 0 0 0.21 0.72 0.072 0 0 0 0 0 1 0 "
         in="fbSourceGraphic" />
    </filter>
    <filter
       style="color-interpolation-filters:sRGB"
       inkscape:label="Greyscale"
       id="filter21"
       x="-0.0067058834"
       y="-0.005150578"
       width="1.015991"
       height="1.0122947">
      <feColorMatrix
         values="0.21 0.72 0.072 0 0 0.21 0.72 0.072 0 0 0.21 0.72 0.072 0 0 0 0 0 1 0 "
         id="feColorMatrix19"
         result="fbSourceGraphic" />
      <feColorMatrix
         result="fbSourceGraphicAlpha"
         in="fbSourceGraphic"
         values="0 0 0 -1 0 0 0 0 -1 0 0 0 0 -1 0 0 0 0 1 0"
         id="feColorMatrix20" />
      <feColorMatrix
         id="feColorMatrix21"
         values="0.21 0.72 0.072 0 0 0.21 0.72 0.072 0 0 0.21 0.72 0.072 0 0 0 0 0 1 0 "
         in="fbSourceGraphic" />
    </filter>
    <filter
       style="color-interpolation-filters:sRGB"
       inkscape:label="Greyscale"
       id="filter24"
       x="-0.0067058834"
       y="-0.005150578"
       width="1.015991"
       height="1.0122947">
      <feColorMatrix
         values="0.21 0.72 0.072 0 0 0.21 0.72 0.072 0 0 0.21 0.72 0.072 0 0 0 0 0 1 0 "
         id="feColorMatrix22"
         result="fbSourceGraphic" />
      <feColorMatrix
         result="fbSourceGraphicAlpha"
         in="fbSourceGraphic"
         values="0 0 0 -1 0 0 0 0 -1 0 0 0 0 -1 0 0 0 0 1 0"
         id="feColorMatrix23" />
      <feColorMatrix
         id="feColorMatrix24"
         values="0.21 0.72 0.072 0 0 0.21 0.72 0.072 0 0 0.21 0.72 0.072 0 0 0 0 0 1 0 "
         in="fbSourceGraphic" />
    </filter>
    <inkscape:path-effect
       effect="bspline"
       id="path-effect1654"
       is_visible="true"
       lpeversion="1.3"
       weight="33.333333"
       steps="2"
       helper_size="0"
       apply_no_weight="true"
       apply_with_weight="true"
       only_selected="false"
       uniform="false" />
  </defs>
  <g
     inkscape:label="Layer 1"
     inkscape:groupmode="layer"
     id="layer1"
     transform="translate(95.385319,12.152836)">
    <path
       id="path388-1"
       d="m 389.094,519.211 c 45.541,0 98.199,-6.838 133.045,-11.363 15.257,-1.981 26.571,-3.449 32.037,-3.642 -3.548,-65.626 -18.873,-349.411 -20.252,-374.974 -12.567,1.319 -86.888,8.811 -150.601,8.811 -32.754,0 -57.759,-1.965 -74.387,-5.839 l -2.131,366.233 c 8.941,13.785 36.621,20.774 82.289,20.774 M 541.507,129.693 c 0.805,16.244 6.003,121.219 10.832,217.643 -4.487,-97.252 -9.26,-203.423 -9.901,-217.707 -0.273,0.018 -0.592,0.042 -0.931,0.064 m -4.059,-0.203 c 0.754,13.929 4.839,89.61 9.208,170.495 -4.078,-81.713 -7.865,-158.183 -8.477,-170.556 -0.22,0.019 -0.468,0.041 -0.731,0.061 m 9.248,0.342 c -0.32,0.018 -0.709,0.038 -1.126,0.062 0.831,18.534 7.246,161.197 12.206,267.422 -4.596,-106.861 -10.424,-251.238 -11.08,-267.484 m 17.57,275.22 c -3.847,-107.121 -8.57,-259.342 -9.047,-274.796 -0.406,0.01 -0.933,0.021 -1.523,0.035 0.633,17.777 6.234,168.195 10.57,274.761 m 3.725,94.516 c -0.007,-0.15 -0.014,-0.302 -0.024,-0.452 -0.031,0.151 -0.021,0.302 0.024,0.452 m 2.48,-2.994 c 0.094,-0.004 0.203,-0.008 0.296,-0.011 -3.339,-63.633 -10.748,-345.629 -11.284,-366.09 -0.445,0.003 -1.034,0.008 -1.724,0.015 0.726,23.434 9.325,300.408 12.712,366.086 m 2.571,-1.269 c 0.163,-0.006 0.337,-0.014 0.489,-0.015 -3.314,-63.371 -9.367,-345.089 -9.786,-364.599 -0.474,-0.001 -1.14,-0.003 -1.918,-0.007 0.585,22.325 7.865,299.16 11.215,364.621 m -3.076,-364.233 c 0.329,20.072 4.94,296.678 8.217,361.696 0.308,-0.012 0.605,-0.02 0.877,-0.023 -3.278,-62.823 -6.579,-344.023 -6.783,-361.602 -0.53,-0.018 -1.309,-0.041 -2.311,-0.071 m -4.071,-0.193 c 0.451,21.19 6.403,297.924 9.718,363.158 0.233,-0.007 0.471,-0.017 0.684,-0.019 -3.294,-63.106 -7.979,-344.544 -8.285,-363.104 -0.507,-0.008 -1.227,-0.021 -2.117,-0.035 m -322.404,3.377 c 0.207,0.038 0.414,0.086 0.621,0.14 0.586,0.035 1.183,0.068 1.757,0.101 -0.515,-0.014 -1.049,-0.028 -1.573,-0.044 0.229,0.068 0.458,0.133 0.684,0.227 1.366,0.005 2.715,0.398 4.033,0.398 1.24,0 2.444,0.381 3.629,0.381 h 0.012 c -2.133,0 -4.362,-0.505 -6.669,-0.57 -0.805,-0.082 -1.66,-0.552 -2.494,-0.633 m -23.404,-2.272 c -22.849,-2.376 -55.481,-3.649 -97.725,-3.798 42.244,0.149 74.874,1.422 97.723,3.798 6.127,0.5 11.797,1.061 16.905,1.687 -37.386,-3.102 -98.248,-4.463 -142.14,-5.054 0.534,0.064 1.095,0.13 1.645,0.195 42.547,0.591 100.263,2.133 137.369,5.035 1.871,0.093 3.7,0.189 5.481,0.284 0.817,-0.024 1.622,-0.06 2.413,-0.042 -1.54,-0.143 -3.127,-0.282 -4.763,-0.418 -5.107,-0.626 -10.781,-1.187 -16.908,-1.687 M 62.821,126.41 61.167,126.245 v 0.003 l 1.649,0.162 c 0.083,0.007 0.921,0.092 2.401,0.233 l -0.031,0.923 c -0.005,0.138 -0.033,0.895 -0.083,2.199 -0.34,-0.034 -0.661,-0.065 -0.936,-0.092 -0.761,22.035 -8.82,254.373 -12.903,347.786 4.246,-93.945 12.901,-322.785 13.84,-347.694 0.049,-1.304 0.079,-2.061 0.083,-2.199 l 0.034,-0.923 c -1.48,-0.141 -2.316,-0.226 -2.4,-0.233 M 40.408,498.605 c 0.175,0.003 0.374,0.013 0.562,0.02 3.379,-66.229 11.238,-343.543 11.936,-368.29 -0.591,-0.023 -1.119,-0.044 -1.529,-0.059 -0.537,21.592 -7.632,304.434 -10.969,368.329 m 3.588,1.481 c 3.408,-66.477 12.169,-344.233 12.978,-369.942 -0.508,-0.031 -0.964,-0.056 -1.332,-0.077 -0.637,22.566 -8.658,305.84 -12.015,370.005 0.114,0.002 0.247,0.009 0.369,0.014 m 16.1,-370.135 v -0.005 c 0,-0.03 -0.317,-0.055 -0.614,-0.079 C 58.819,150.986 51.324,382.112 47.4,475.583 51.499,381.61 60.096,153.95 60.096,129.951 m 8.333,-0.468 C 67.777,146.748 62.609,283.46 58.287,389.807 62.849,284.113 68.376,148.997 69.17,129.57 c -0.25,-0.03 -0.528,-0.061 -0.741,-0.087 m 187.55,6.402 c 11.325,-0.93 21.104,-2.352 29.321,-4.254 -8.413,1.902 -18.116,3.324 -29.321,4.254 m -34.038,0.964 h 0.027 c 22.116,0 40.084,-1.268 53.898,-3.363 -0.084,0.015 -0.171,0.123 -0.255,0.136 -13.778,2.069 -31.69,3.227 -53.67,3.227 m -19.836,-4.39 c -6.98,-0.291 -14.189,-0.548 -21.511,-0.779 7.322,0.25 14.531,0.51 21.511,0.779 m -91.737,-2.519 c -1.733,-0.04 -3.446,-0.082 -5.136,-0.123 0.689,0.077 1.374,0.155 2.082,0.234 3.11,0.152 6.315,0.305 9.585,0.462 36.304,1.274 80.504,2.647 114.056,4.022 3.006,0.047 5.937,0.083 8.785,0.108 -2.209,-0.181 -4.494,-0.355 -6.844,-0.52 -35.793,-1.071 -84.42,-2.792 -122.528,-4.183 m 6.955,0.99 c -0.286,-0.025 -0.584,-0.141 -0.867,-0.167 29.019,3.024 67.789,6.086 103.386,6.086 h 0.132 c -35.268,0 -73.746,-2.924 -102.651,-5.919 M 87.525,509.317 c 33.292,4.157 83.605,10.438 127.809,10.438 46.881,0 75.289,-7.172 84.453,-21.318 l -1.595,-366.814 c -16.635,6.032 -42.932,9.09 -78.24,9.09 -62.439,0 -134.632,-9.653 -147.263,-11.413 -1.076,26.38 -12.731,311.405 -16.187,376.637 5.365,0.176 16.288,1.54 31.023,3.38 m -58.656,-16.53 c 3.265,-65.225 7.452,-341.21 7.758,-361.715 -1.003,0.03 -1.783,0.053 -2.316,0.071 -0.203,17.579 -3.505,298.779 -6.78,361.602 0.402,0.003 0.858,0.02 1.338,0.042 M 40.696,130.889 c -0.887,0.011 -1.612,0.022 -2.116,0.029 -0.28,18.602 -4.541,300.187 -7.831,363.292 0.349,0.005 0.736,0.018 1.144,0.036 3.28,-65.197 8.387,-340.703 8.803,-363.357 m -5.775,364.815 c 3.318,-65.779 9.36,-342.544 9.849,-364.999 -0.794,-0.001 -1.439,-0.003 -1.923,-0.004 -0.362,19.629 -5.576,301.609 -8.878,364.974 0.297,0.004 0.615,0.015 0.952,0.029 m 538.267,2.634 0.047,0.765 -1.288,-0.126 c -0.38,-0.016 -0.846,-0.048 -1.353,-0.035 0.002,0.043 0.004,0.074 0.007,0.117 l 0.076,1.386 -1.395,-0.384 c -0.123,-0.007 -0.265,-0.332 -0.404,-0.332 h 0.085 v 0.675 l -0.381,1.502 -1.734,-0.067 c -0.326,-0.014 -0.835,-0.012 -1.256,-0.004 l -0.064,-0.068 c -0.573,-10.605 -1.449,-27.986 -2.42,-49.592 -4.311,-102.736 -11.487,-303.529 -12.15,-322.134 -0.364,0.014 -0.822,0.031 -1.323,0.052 0.856,21.317 8.854,219.434 13.471,322.082 0.971,21.606 1.792,38.987 2.366,49.592 l 0.004,0.068 0.083,1.541 -1.61,-0.07 c -0.302,-0.012 -0.653,-0.014 -1.036,-0.008 l 0.083,1.549 -1.721,-0.076 c -0.268,-0.01 -0.581,-0.014 -0.919,-0.012 l 0.083,1.558 -1.822,-0.08 c -0.246,-0.01 -0.522,-0.014 -0.82,-0.012 l 0.083,1.562 -1.93,-0.083 c -4.129,-0.171 -16.275,1.404 -33.359,3.622 -34.937,4.535 -87.73,11.391 -133.497,11.391 -48.093,0 -76.073,-7.478 -85.539,-22.859 l -0.263,-0.289 0.009,-1.231 h -0.886 l -0.398,0.595 v 0.501 l 0.378,0.424 c -9.69,15.747 -37.839,23.402 -87.161,23.402 -44.422,0 -94.814,-6.296 -128.193,-10.463 -16.529,-2.064 -28.245,-3.544 -32.336,-3.359 l -1.917,0.083 0.1,-1.743 c -0.48,-0.012 -0.918,-0.013 -1.283,10e-4 l -1.821,0.079 0.097,-1.739 c -0.243,-0.007 -0.486,-0.013 -0.7,-0.013 -0.251,0.035 -0.481,0.004 -0.692,0.015 l -2.052,0.074 -0.244,-1.715 v -0.017 -0.007 c 0,-0.003 -0.146,-0.008 -0.272,-0.008 -0.288,0.052 -0.412,0.004 -0.623,0.013 l -1.575,0.072 0.106,-1.611 c 0.002,-0.036 0.012,-0.077 0.014,-0.115 -0.326,-0.011 -0.628,-0.015 -0.907,-0.015 -0.17,-0.033 -0.48,0.004 -0.691,0.011 l -1.501,0.067 0.081,-1.501 c 0.004,-0.072 0.008,-0.149 0.013,-0.221 -0.661,-0.022 -1.24,-0.026 -1.711,-0.003 l -1.394,0.061 0.075,-1.395 c 0.004,-0.102 0.011,-0.213 0.017,-0.317 0.04,-0.745 0.08,-1.521 0.121,-2.327 3.346,-66.001 10.304,-343.047 10.893,-366.647 0.024,-0.931 0.036,-1.475 0.039,-1.589 l 0.019,-0.748 c -1.753,-0.037 -2.828,-0.055 -2.958,-0.059 0.13,0.004 1.179,0.022 2.932,0.059 l -0.005,0.748 c -0.003,0.114 -0.011,0.658 -0.033,1.589 -0.689,-0.014 -1.275,-0.027 -1.725,-0.035 -0.446,20.626 -6.603,303.027 -9.922,366.655 0.236,0.005 0.499,0.015 0.76,0.027 -0.042,0.806 -0.081,1.582 -0.121,2.327 -0.709,-0.026 -1.318,-0.031 -1.819,-0.007 l -1.287,0.056 0.071,-1.287 c 0.002,-0.054 0.005,0.027 0.008,-0.027 -0.441,-0.017 -0.858,0.109 -1.221,0.109 H 33.573 19.776 V 124.336 h 284.396 280.085 v 374.002 z"
       style="fill:#000000;fill-opacity:1;fill-rule:nonzero;stroke:none;stroke-width:0.730199;filter:url(#filter1)"
       transform="matrix(0.48312542,0,0,-0.48312542,-103.62811,276.60526)"
       clip-path="url(#clipPath389)"
       sodipodi:nodetypes="ccccccscccccccccccccccccccccccccccccccccccccccccccccccssccccccccccccccccccccccccccccccccccccccscccccccccccsccccccccccccccccscccsccsccccccccccccccccccccccccccccccccccccccccccccccccccscccccccsccccccccccccsccccccccccccccccccccccccccccccsccccc" />
    <g
       id="g1653"
       transform="matrix(1.8360953,0,0,1.8334969,313.40507,-295.26487)"
       style="stroke-width:0.54502;filter:url(#filter1)">
      <g
         id="g1652"
         transform="translate(-175.89345,23.755725)"
         style="stroke-width:0.54502">
        <ellipse
           style="opacity:1;fill:none;stroke:#000000;stroke-width:1.09004"
           id="path2"
           cx="-85.276299"
           cy="148.07355"
           transform="matrix(0.83356553,-0.5524206,0.55348176,0.8328613,0,0)"
           rx="39.269516"
           ry="39.248436" />
        <g
           id="g1651"
           style="stroke-width:0.54502">
          <rect
             style="fill:#4d4d4d;stroke:#000000;stroke-width:1.09004"
             id="rect2"
             width="8.9894066"
             height="18.442036"
             x="-89.771004"
             y="187.32198"
             transform="matrix(0.83356553,-0.5524206,0.55348176,0.8328613,0,0)" />
          <rect
             style="fill:#000000;stroke:#000000;stroke-width:1.09004"
             id="rect3"
             width="13.4344"
             height="73.601913"
             x="-92.495369"
             y="199.82211"
             transform="matrix(0.83305927,-0.55318374,0.55271856,0.83336798,0,0)" />
          <ellipse
             style="fill:none;stroke:#000000;stroke-width:1.09004"
             id="circle3"
             cx="-85.276299"
             cy="148.07355"
             transform="matrix(0.83356553,-0.5524206,0.55348176,0.8328613,0,0)"
             rx="35.95763"
             ry="35.938328" />
        </g>
      </g>
    </g>
  </g>
</svg>
